<?xml version="1.0" encoding="UTF-8" standalone="no"?>
<svg
   xmlns:dc="http://purl.org/dc/elements/1.1/"
   xmlns:cc="http://creativecommons.org/ns#"
   xmlns:rdf="http://www.w3.org/1999/02/22-rdf-syntax-ns#"
   xmlns:svg="http://www.w3.org/2000/svg"
   xmlns="http://www.w3.org/2000/svg"
   xmlns:sodipodi="http://sodipodi.sourceforge.net/DTD/sodipodi-0.dtd"
   xmlns:inkscape="http://www.inkscape.org/namespaces/inkscape"
   width="500mm"
   height="500mm"
   viewBox="0 0 500 500"
   version="1.1"
   id="svg42"
   inkscape:version="1.0.1 (3bc2e813f5, 2020-09-07)"
   sodipodi:docname="cocktail.svg">
  <defs
     id="defs36" />
  <sodipodi:namedview
     id="base"
     pagecolor="#ffffff"
     bordercolor="#666666"
     borderopacity="1.0"
     inkscape:pageopacity="0.0"
     inkscape:pageshadow="2"
     inkscape:zoom="0.24748737"
     inkscape:cx="1091.5176"
     inkscape:cy="994.07916"
     inkscape:document-units="mm"
     inkscape:current-layer="layer1"
     inkscape:document-rotation="0"
     showgrid="false"
     inkscape:window-width="1267"
     inkscape:window-height="1040"
     inkscape:window-x="182"
     inkscape:window-y="0"
     inkscape:window-maximized="0" />
  <metadata
     id="metadata39">
    <rdf:RDF>
      <cc:Work
         rdf:about="">
        <dc:format>image/svg+xml</dc:format>
        <dc:type
           rdf:resource="http://purl.org/dc/dcmitype/StillImage" />
        <dc:title></dc:title>
      </cc:Work>
    </rdf:RDF>
  </metadata>
  <g
     inkscape:label="Layer 1"
     inkscape:groupmode="layer"
     id="layer1">
    <g
       id="g105"
       transform="matrix(1.4200496,0,0,1.4200496,46.236292,89.06219)"
       style="fill:#ffffff">
      <g
         id="g48"
         style="fill:#ffffff">
	<path
   d="m 240.335,92.838 h -0.01 c -2.845,0 -5.148,2.307 -5.148,5.153 0,2.846 2.313,5.153 5.158,5.153 2.846,0 5.153,-2.307 5.153,-5.153 0,-2.846 -2.306,-5.153 -5.153,-5.153 z"
   id="path44"
   style="fill:#ffffff" />

	<path
   d="M 285.326,82.116 241.394,52.828 c -1.693,-1.129 -3.682,-1.731 -5.717,-1.731 h -8.778 c -6.2,-4.771 -15.042,-8.252 -27.328,-8.252 -0.483,0 -0.975,0.005 -1.468,0.016 -3.049,0.067 -5.725,2.043 -6.687,4.936 -0.201,0.606 -4.864,15.001 1.755,27.712 0.983,1.888 2.149,3.63 3.492,5.227 -2.721,2.761 -6.453,4.372 -10.483,4.372 H 53.513 c -14.309,0 -27.207,6.143 -36.207,15.925 -6.353,-17.49 6.354,-36.005 14.125,-45.145 1.937,1.415 4.108,2.457 6.369,2.99 1.187,0.279 2.376,0.417 3.556,0.417 4.227,0 8.316,-1.768 11.587,-5.095 l 0.621,-0.634 c 3.186,-3.263 3.761,-3.851 12.084,-2.224 2.611,0.512 5.279,-0.454 6.962,-2.505 1.683,-2.052 2.104,-4.862 1.095,-7.317 C 69.838,32.104 57.026,16.081 36.232,22.844 h 10e-4 C 28.033,25.507 22.972,33.377 23.468,41.609 19.739,45.522 13.158,53.103 7.937,62.749 -2.604,82.223 -2.641,100.664 7.795,116.143 5.549,121.77 4.3,127.901 4.3,134.321 v 116.977 c 0,13.497 10.981,24.478 24.478,24.478 h 5.668 c 13.497,0 24.478,-10.981 24.478,-24.478 v -22.092 c 19.736,6.047 57.058,13.312 98.425,0.104 v 21.989 c 0,13.497 10.981,24.478 24.478,24.478 h 7.834 c 12.014,0 22.169,-8.602 24.145,-20.455 l 11.74,-70.437 c 1.619,-9.72 6.712,-18.37 14.388,-24.49 l 41.064,-17.369 C 290.719,138.912 297,129.435 297,118.88 v -14.951 c 0,-8.785 -4.364,-16.94 -11.674,-21.813 z M 40.689,36.566 c 10e-4,0 10e-4,0 10e-4,0 1.826,-0.593 3.539,-0.892 5.164,-0.892 2.153,0 4.151,0.524 6.047,1.586 -3.509,1.26 -5.993,3.492 -8.663,6.228 l -0.583,0.595 c -0.889,0.903 -1.3,0.807 -1.545,0.751 -0.586,-0.138 -1.244,-0.573 -1.81,-1.139 -0.121,-1.333 -0.585,-2.641 -1.403,-3.784 0.219,-1.509 1.249,-2.844 2.792,-3.345 z m 12.824,69.155 h 59.063 c 0.522,0.971 1.028,2.079 1.415,3.286 1.639,5.104 0.385,9.518 -3.944,13.893 -11.265,11.381 -12.615,19.958 -13.602,26.222 -0.607,3.857 -0.834,5.3 -3.26,7.647 -2.339,2.263 -9.797,5.255 -19.012,6.347 -9.212,1.088 -14.735,-0.29 -16.398,-1.286 -1.76,-15.195 -13.86,-32.257 -30.494,-38.89 4.409,-10.123 14.505,-17.219 26.232,-17.219 z m 219.454,18.32 -42.291,17.888 c -0.771,0.326 -1.5,0.745 -2.17,1.247 -12.459,9.346 -20.731,22.955 -23.293,38.318 v 0.001 l -11.74,70.437 c -0.312,1.872 -1.915,3.231 -3.813,3.231 h -7.834 c -2.131,0 -3.865,-1.734 -3.865,-3.865 v -36.845 c 0,-3.47 -1.746,-6.707 -4.646,-8.612 -1.707,-1.122 -3.679,-1.694 -5.661,-1.694 -1.386,0 -2.777,0.28 -4.087,0.845 -56.763,24.528 -110.056,0.37 -110.567,0.133 -3.193,-1.499 -6.932,-1.262 -9.908,0.628 -2.978,1.89 -4.782,5.172 -4.782,8.7 v 36.845 c 0,2.131 -1.734,3.865 -3.865,3.865 h -5.668 c -2.131,0 -3.865,-1.734 -3.865,-3.865 V 142.521 c 7.863,5.051 13.75,14.138 14.47,21.784 0.654,6.963 5.408,12.574 13.041,15.396 4.282,1.583 9.608,2.312 15.284,2.311 14.321,0 30.86,-4.64 38.375,-11.909 6.888,-6.664 7.886,-13.003 8.688,-18.095 0.755,-4.792 1.406,-8.929 8.46,-16.057 9.731,-9.833 11.267,-20.845 9.063,-30.23 h 53.885 c 11.462,0 21.925,-5.429 28.512,-14.462 0.193,0.016 0.386,0.042 0.578,0.042 3.109,0 5.978,-2.026 6.911,-5.157 1.137,-3.819 -1.037,-7.836 -4.855,-8.974 -5.559,-1.656 -9.262,-4.355 -11.32,-8.254 -1.998,-3.784 -2.156,-8.129 -1.85,-11.421 18.181,1.846 20.716,14.579 20.967,16.22 0.528,3.914 4.112,6.668 8.044,6.191 2.53,-0.316 4.584,-1.91 5.61,-4.05 l 35.115,23.41 c 1.562,1.042 2.495,2.785 2.495,4.663 v 0.789 c -0.86,-0.643 -1.916,-1.037 -3.072,-1.037 h -0.01 c -2.845,0 -5.148,2.307 -5.148,5.153 0,2.846 2.313,5.153 5.158,5.153 1.156,0 2.212,-0.394 3.072,-1.037 v 5.931 c 0.002,2.255 -1.34,4.281 -3.418,5.16 z"
   id="path46"
   style="fill:#ffffff" />

</g>
      <g
         id="g50"
         style="fill:#ffffff">
</g>
      <g
         id="g52"
         style="fill:#ffffff">
</g>
      <g
         id="g54"
         style="fill:#ffffff">
</g>
      <g
         id="g56"
         style="fill:#ffffff">
</g>
      <g
         id="g58"
         style="fill:#ffffff">
</g>
      <g
         id="g60"
         style="fill:#ffffff">
</g>
      <g
         id="g62"
         style="fill:#ffffff">
</g>
      <g
         id="g64"
         style="fill:#ffffff">
</g>
      <g
         id="g66"
         style="fill:#ffffff">
</g>
      <g
         id="g68"
         style="fill:#ffffff">
</g>
      <g
         id="g70"
         style="fill:#ffffff">
</g>
      <g
         id="g72"
         style="fill:#ffffff">
</g>
      <g
         id="g74"
         style="fill:#ffffff">
</g>
      <g
         id="g76"
         style="fill:#ffffff">
</g>
      <g
         id="g78"
         style="fill:#ffffff">
</g>
    </g>
    <g
       id="g111"
       transform="matrix(0.44800616,0,0,0.44800616,144.37396,21.756061)"
       style="fill:#ffffff">
      <path
         d="M 414.221,100.116 391.438,55.623 c -1.656,-3.235 -3.58,-6.275 -5.717,-9.124 l 4.675,-14.217 c 2.156,-6.558 -1.412,-13.623 -7.97,-15.779 -6.558,-2.157 -13.623,1.413 -15.779,7.97 l -1.47,4.47 c -0.832,-0.44 -1.674,-0.864 -2.529,-1.268 l 0.145,-15.056 c 0.066,-6.903 -5.476,-12.553 -12.379,-12.62 -6.872,-0.075 -12.553,5.476 -12.62,12.379 l -0.089,9.251 c -0.826,-0.026 -1.651,-0.032 -2.476,-0.025 L 329.748,10.495 C 326.693,4.305 319.2,1.763 313.007,4.817 c -6.191,3.055 -8.733,10.55 -5.678,16.741 l 2.763,5.599 c -0.924,0.419 -1.842,0.86 -2.752,1.325 -0.078,0.04 -0.158,0.084 -0.236,0.124 l -9.48,-6.839 c -5.598,-4.039 -13.412,-2.776 -17.45,2.824 -4.039,5.599 -2.775,13.412 2.824,17.45 l 4.233,3.054 c -16.288,18.827 -49.686,44.913 -95.627,61.821 -37.114,13.659 -93.92,25.206 -153.79,2.639 -3.105,-1.17 -6.55,-1.058 -9.573,0.313 -3.023,1.371 -5.376,3.889 -6.541,6.998 -17.351,46.312 -15.541,96.57 5.099,141.517 20.637,44.942 57.584,79.07 104.035,96.099 7.011,2.57 14.114,4.688 21.274,6.377 l 30.673,39.619 h -2.742 c -6.903,0 -12.5,5.596 -12.5,12.5 0,6.904 5.597,12.5 12.5,12.5 h 54.691 c 6.904,0 12.5,-5.596 12.5,-12.5 0,-6.903 -5.596,-12.5 -12.5,-12.5 H 214.397 L 187.41,365.619 c 2.172,0.078 4.344,0.127 6.516,0.127 26.593,-10e-4 53.149,-5.851 78.073,-17.479 44.892,-20.945 78.816,-57.977 95.522,-104.274 1.356,-3.759 2.603,-7.597 3.706,-11.406 9.463,-32.667 6.019,-65.426 -9.585,-93.739 l 46.72,-21.7 c 3.083,-1.432 5.449,-4.057 6.554,-7.271 1.105,-3.211 0.855,-6.736 -0.695,-9.761 z m -70.216,135.395 c -14.432,39.992 -43.758,71.992 -82.577,90.104 -38.791,18.098 -82.115,20.016 -121.99,5.397 -40.15,-14.718 -72.084,-44.216 -89.92,-83.059 -3.594,-7.826 -6.523,-15.839 -8.793,-23.973 3.431,1.585 7.003,2.969 10.709,4.081 1.198,0.359 2.407,0.531 3.597,0.531 5.376,0 10.344,-3.497 11.968,-8.912 1.984,-6.612 -1.769,-13.581 -8.381,-15.564 -13.601,-4.08 -20.754,-11.405 -23.528,-14.891 -0.134,-2.747 -0.19,-5.498 -0.179,-8.249 5.966,2.099 13.293,3.736 22.305,4.524 0.371,0.032 0.738,0.048 1.103,0.048 6.411,0 11.87,-4.906 12.438,-11.412 0.601,-6.877 -4.487,-12.94 -11.364,-13.542 -11.893,-1.04 -18.557,-3.72 -22.168,-5.956 1.016,-5.859 2.365,-11.688 4.049,-17.462 60.952,19.016 121.454,9.117 170.635,-11.424 2.088,13.096 8.404,25.243 18.242,34.578 10.962,10.402 25.177,16.263 40.028,16.718 7.15,12.84 18.783,22.785 32.748,27.784 6.649,2.38 13.6,3.559 20.533,3.559 9.597,0 19.151,-2.279 27.831,-6.73 -0.404,7.922 -1.75,15.947 -4.076,23.973 -0.956,3.298 -2.036,6.621 -3.21,9.877 z m -5.779,-113.35 c -3.379,1.569 -5.881,4.564 -6.826,8.168 -0.944,3.604 -0.232,7.441 1.942,10.466 7.496,10.427 12.69,21.854 15.53,33.853 l -8.442,4.507 c -9.07,4.847 -19.397,5.607 -29.079,2.141 -9.689,-3.469 -17.193,-10.617 -21.115,-20.092 l -0.71,-1.73 c -2.136,-5.206 -7.486,-8.342 -13.071,-7.663 -10.684,1.296 -21.29,-2.206 -29.098,-9.615 -7.641,-7.25 -11.679,-17.375 -11.162,-27.873 33.358,-17.552 59.459,-39.234 73.848,-57.6 1.769,-2.258 5.387,-4.293 8.691,-5.986 8.912,-4.563 19.069,-5.383 28.598,-2.308 9.529,3.075 17.291,9.677 21.854,18.589 l 16.862,32.931 z"
         id="path107"
         style="fill:#ffffff" />
      <path
         d="m 337.942,59.989 c -3.29,0 -6.51,1.33 -8.84,3.66 -2.32,2.32 -3.66,5.54 -3.66,8.83 0,3.29 1.34,6.52 3.66,8.84 2.33,2.33 5.55,3.66 8.84,3.66 3.29,0 6.51,-1.33 8.84,-3.66 2.33,-2.32 3.66,-5.55 3.66,-8.84 0,-3.29 -1.33,-6.51 -3.66,-8.83 -2.33,-2.33 -5.55,-3.66 -8.84,-3.66 z"
         id="path109"
         style="fill:#ffffff" />
    </g>
  </g>
</svg>
